<svg xmlns="http://www.w3.org/2000/svg" xmlns:xlink="http://www.w3.org/1999/xlink" width="500" zoomAndPan="magnify" viewBox="0 0 375 374.999991" height="500" preserveAspectRatio="xMidYMid meet" version="1.0"><defs><g/><clipPath id="id1"><path d="M 194 125.625 L 225 125.625 L 225 187.875 L 194 187.875 Z M 194 125.625 " clip-rule="nonzero"/></clipPath><clipPath id="id2"><path d="M 150 125.625 L 181 125.625 L 181 187.875 L 150 187.875 Z M 150 125.625 " clip-rule="nonzero"/></clipPath></defs><g clip-path="url(#id1)"><path fill="#29acff" d="M 194.015625 125.617188 L 194.015625 138.347656 L 212.296875 156.742188 L 194.015625 175.132812 L 194.015625 187.863281 L 224.953125 156.742188 Z M 194.015625 125.617188 " fill-opacity="1" fill-rule="nonzero"/></g><g clip-path="url(#id2)"><path fill="#29acff" d="M 181 138.347656 L 181 125.617188 L 150.0625 156.742188 L 181 187.863281 L 181 175.132812 L 162.71875 156.742188 Z M 181 138.347656 " fill-opacity="1" fill-rule="nonzero"/></g><path fill="#29acff" d="M 172.398438 156.742188 L 187.507812 141.542969 L 202.617188 156.742188 L 187.507812 171.941406 Z M 172.398438 156.742188 " fill-opacity="1" fill-rule="nonzero"/><g fill="#ffffff" fill-opacity="1"><g transform="translate(115.338699, 227.823587)"><g><path d="M 21.265625 -0.109375 L 21.265625 0 L 15.375 0 L 9.8125 -5.265625 L 7.03125 -5.265625 L 7.03125 0 L 2.453125 0 L 2.453125 -15.171875 L 14.765625 -15.171875 C 16.921875 -15.171875 18.503906 -14.757812 19.515625 -13.9375 C 20.535156 -13.113281 21.046875 -11.875 21.046875 -10.21875 C 21.046875 -8.6875 20.609375 -7.503906 19.734375 -6.671875 C 18.867188 -5.847656 17.507812 -5.382812 15.65625 -5.28125 Z M 16.21875 -11.640625 L 7.03125 -11.640625 L 7.03125 -8.453125 L 16.21875 -8.453125 Z M 16.21875 -11.640625 "/></g></g></g><g fill="#ffffff" fill-opacity="1"><g transform="translate(140.01725, 227.823587)"><g><path d="M 12.09375 0.359375 C 9.414062 0.359375 7.320312 0.109375 5.8125 -0.390625 C 4.300781 -0.890625 3.210938 -1.707031 2.546875 -2.84375 C 1.890625 -3.976562 1.5625 -5.5625 1.5625 -7.59375 C 1.5625 -9.625 1.890625 -11.207031 2.546875 -12.34375 C 3.203125 -13.488281 4.285156 -14.304688 5.796875 -14.796875 C 7.304688 -15.285156 9.40625 -15.53125 12.09375 -15.53125 C 14.78125 -15.53125 16.878906 -15.285156 18.390625 -14.796875 C 19.898438 -14.304688 20.984375 -13.488281 21.640625 -12.34375 C 22.296875 -11.207031 22.625 -9.625 22.625 -7.59375 C 22.625 -5.5625 22.296875 -3.976562 21.640625 -2.84375 C 20.984375 -1.707031 19.898438 -0.890625 18.390625 -0.390625 C 16.878906 0.109375 14.78125 0.359375 12.09375 0.359375 Z M 12.09375 -3.65625 C 13.9375 -3.65625 15.78125 -3.703125 17.625 -3.796875 L 17.625 -11.40625 C 15.570312 -11.476562 13.726562 -11.515625 12.09375 -11.515625 C 10.457031 -11.515625 8.617188 -11.476562 6.578125 -11.40625 L 6.578125 -3.796875 C 8.410156 -3.703125 10.25 -3.65625 12.09375 -3.65625 Z M 12.09375 -3.65625 "/></g></g></g><g fill="#ffffff" fill-opacity="1"><g transform="translate(166.436182, 227.823587)"><g><path d="M 18.921875 -7.703125 C 19.921875 -7.441406 20.644531 -7.023438 21.09375 -6.453125 C 21.550781 -5.878906 21.78125 -5.125 21.78125 -4.1875 C 21.78125 -2.75 21.289062 -1.691406 20.3125 -1.015625 C 19.34375 -0.335938 17.820312 0 15.75 0 L 2.453125 0 L 2.453125 -15.171875 L 15.078125 -15.171875 C 17.210938 -15.171875 18.773438 -14.835938 19.765625 -14.171875 C 20.765625 -13.515625 21.265625 -12.472656 21.265625 -11.046875 C 21.265625 -10.210938 21.078125 -9.519531 20.703125 -8.96875 C 20.328125 -8.414062 19.734375 -7.992188 18.921875 -7.703125 Z M 16.53125 -9.1875 L 16.53125 -11.578125 L 6.984375 -11.578125 L 6.984375 -9.1875 Z M 6.984375 -3.59375 L 17.046875 -3.59375 L 17.046875 -6.0625 L 6.984375 -6.0625 Z M 6.984375 -3.59375 "/></g></g></g><g fill="#ffffff" fill-opacity="1"><g transform="translate(191.672549, 227.823587)"><g><path d="M 20.03125 0 L 2.453125 0 L 2.453125 -15.171875 L 19.703125 -15.171875 L 19.703125 -11.46875 L 7.03125 -11.46875 L 7.03125 -9.140625 L 16.265625 -9.140625 L 16.265625 -6.03125 L 7.03125 -6.03125 L 7.03125 -3.703125 L 20.03125 -3.703125 Z M 20.03125 0 "/></g></g></g><g fill="#ffffff" fill-opacity="1"><g transform="translate(215.280107, 227.823587)"><g><path d="M 21.265625 -0.109375 L 21.265625 0 L 15.375 0 L 9.8125 -5.265625 L 7.03125 -5.265625 L 7.03125 0 L 2.453125 0 L 2.453125 -15.171875 L 14.765625 -15.171875 C 16.921875 -15.171875 18.503906 -14.757812 19.515625 -13.9375 C 20.535156 -13.113281 21.046875 -11.875 21.046875 -10.21875 C 21.046875 -8.6875 20.609375 -7.503906 19.734375 -6.671875 C 18.867188 -5.847656 17.507812 -5.382812 15.65625 -5.28125 Z M 16.21875 -11.640625 L 7.03125 -11.640625 L 7.03125 -8.453125 L 16.21875 -8.453125 Z M 16.21875 -11.640625 "/></g></g></g><g fill="#ffffff" fill-opacity="1"><g transform="translate(239.95866, 227.823587)"><g><path d="M 12.140625 0 L 7.5625 0 L 7.5625 -11.3125 L 0.171875 -11.3125 L 0.171875 -15.171875 L 19.515625 -15.171875 L 19.515625 -11.3125 L 12.140625 -11.3125 Z M 12.140625 0 "/></g></g></g><g fill="#ffffff" fill-opacity="1"><g transform="translate(95.487138, 258.573585)"><g><path d="M 7.03125 0 L 2.453125 0 L 2.453125 -15.171875 L 9.765625 -15.171875 L 13.703125 -6.734375 L 13.8125 -6.734375 L 17.875 -15.171875 L 25.015625 -15.171875 L 25.015625 0 L 20.4375 0 L 20.4375 -12.078125 L 20.328125 -12.078125 L 16.015625 -3.125 L 11.3125 -3.125 L 7.15625 -12.078125 L 7.03125 -12.078125 Z M 7.03125 0 "/></g></g></g><g fill="#ffffff" fill-opacity="1"><g transform="translate(125.186028, 258.573585)"><g><path d="M 7.1875 -15.171875 L 13.8125 -15.171875 L 21.109375 -0.109375 L 21.109375 0 L 16.125 0 L 14.75 -2.984375 L 6.1875 -2.984375 L 4.796875 0 L -0.0625 0 L -0.0625 -0.109375 Z M 10.421875 -12.078125 L 7.765625 -6.359375 L 13.1875 -6.359375 L 10.53125 -12.078125 Z M 10.421875 -12.078125 "/></g></g></g><g fill="#ffffff" fill-opacity="1"><g transform="translate(148.481205, 258.573585)"><g><path d="M 11.828125 0 L 7.25 0 L 7.25 -5.09375 L -0.21875 -15.0625 L -0.21875 -15.171875 L 5.265625 -15.171875 L 9.59375 -9.109375 L 9.703125 -9.109375 L 14.015625 -15.171875 L 19.28125 -15.171875 L 19.28125 -15.0625 L 11.828125 -5.046875 Z M 11.828125 0 "/></g></g></g><g fill="#ffffff" fill-opacity="1"><g transform="translate(169.768238, 258.573585)"><g><path d="M 7.03125 0 L 2.453125 0 L 2.453125 -15.171875 L 19.640625 -15.171875 L 19.640625 -11.3125 L 7.03125 -11.3125 L 7.03125 -8.484375 L 16.15625 -8.484375 L 16.15625 -5.0625 L 7.03125 -5.0625 Z M 7.03125 0 "/></g></g></g><g fill="#ffffff" fill-opacity="1"><g transform="translate(191.791602, 258.573585)"><g><path d="M 16.359375 0 L 1.453125 0 L 1.453125 -3.65625 L 6.734375 -3.65625 L 6.734375 -11.53125 L 1.453125 -11.53125 L 1.453125 -15.171875 L 16.359375 -15.171875 L 16.359375 -11.53125 L 11.09375 -11.53125 L 11.09375 -3.65625 L 16.359375 -3.65625 Z M 16.359375 0 "/></g></g></g><g fill="#ffffff" fill-opacity="1"><g transform="translate(211.829141, 258.573585)"><g><path d="M 20.03125 0 L 2.453125 0 L 2.453125 -15.171875 L 19.703125 -15.171875 L 19.703125 -11.46875 L 7.03125 -11.46875 L 7.03125 -9.140625 L 16.265625 -9.140625 L 16.265625 -6.03125 L 7.03125 -6.03125 L 7.03125 -3.703125 L 20.03125 -3.703125 Z M 20.03125 0 "/></g></g></g><g fill="#ffffff" fill-opacity="1"><g transform="translate(235.436699, 258.573585)"><g><path d="M 17.765625 0 L 2.453125 0 L 2.453125 -15.171875 L 7.03125 -15.171875 L 7.03125 -3.875 L 17.765625 -3.875 Z M 17.765625 0 "/></g></g></g><g fill="#ffffff" fill-opacity="1"><g transform="translate(255.831237, 258.573585)"><g><path d="M 2.453125 0 L 2.453125 -15.171875 L 13.4375 -15.171875 C 15.59375 -15.171875 17.296875 -14.925781 18.546875 -14.4375 C 19.796875 -13.957031 20.703125 -13.171875 21.265625 -12.078125 C 21.828125 -10.984375 22.109375 -9.488281 22.109375 -7.59375 C 22.109375 -5.6875 21.828125 -4.1875 21.265625 -3.09375 C 20.703125 -2 19.796875 -1.207031 18.546875 -0.71875 C 17.296875 -0.238281 15.59375 0 13.4375 0 Z M 7.03125 -11.3125 L 7.03125 -3.875 L 17.109375 -3.875 L 17.109375 -11.3125 Z M 7.03125 -11.3125 "/></g></g></g></svg>